<svg id="Layer_1" enable-background="new 0 0 256 256" height="512" viewBox="0 0 256 256" width="512" xmlns="http://www.w3.org/2000/svg"><g><path d="m179.863 121.11c-1.381 0-2.5 1.119-2.5 2.5v1.89h-15.531c-.323-4.544-1.511-8.851-3.413-12.753l12.842-7.415c1.195-.69 1.605-2.219.915-3.415-.69-1.197-2.221-1.604-3.415-.915l-12.848 7.418c-2.493-3.669-5.664-6.841-9.333-9.333l7.767-13.453 1.637.945c.394.228.823.335 1.248.335.863 0 1.704-.448 2.167-1.25.69-1.196.28-2.725-.915-3.415l-7.603-4.39c-1.193-.689-2.724-.282-3.415.915-.69 1.196-.28 2.725.915 3.415l1.636.945-7.764 13.447c-3.902-1.902-8.209-3.09-12.753-3.413v-14.833c0-1.381-1.119-2.5-2.5-2.5s-2.5 1.119-2.5 2.5v14.832c-4.544.323-8.852 1.511-12.753 3.413l-7.764-13.447 1.636-.945c1.195-.69 1.605-2.219.915-3.415-.69-1.197-2.222-1.603-3.415-.915l-7.603 4.39c-1.195.69-1.605 2.219-.915 3.415.463.802 1.304 1.25 2.167 1.25.425 0 .854-.108 1.248-.335l1.637-.945 7.767 13.453c-3.669 2.493-6.841 5.664-9.333 9.333l-12.848-7.418c-1.194-.69-2.725-.282-3.415.915-.69 1.196-.28 2.725.915 3.415l12.842 7.415c-1.902 3.902-3.09 8.209-3.413 12.753h-15.531v-1.89c0-1.381-1.119-2.5-2.5-2.5s-2.5 1.119-2.5 2.5v8.779c0 1.381 1.119 2.5 2.5 2.5s2.5-1.119 2.5-2.5v-1.89h15.531c.323 4.544 1.511 8.851 3.413 12.753l-12.842 7.415c-1.195.69-1.605 2.219-.915 3.415.463.802 1.304 1.25 2.167 1.25.425 0 .854-.108 1.248-.335l12.848-7.418c2.493 3.669 5.664 6.841 9.333 9.333l-7.767 13.453-1.637-.945c-1.192-.69-2.725-.282-3.415.915-.69 1.196-.28 2.725.915 3.415l7.603 4.39c.394.228.823.335 1.248.335.863 0 1.704-.448 2.167-1.25.69-1.196.28-2.725-.915-3.415l-1.636-.945 7.764-13.447c3.902 1.902 8.209 3.09 12.753 3.413v14.832c0 1.381 1.119 2.5 2.5 2.5s2.5-1.119 2.5-2.5v-14.832c4.544-.323 8.852-1.511 12.753-3.413l7.764 13.447-1.636.945c-1.195.69-1.605 2.219-.915 3.415.463.802 1.304 1.25 2.167 1.25.425 0 .854-.108 1.248-.335l7.603-4.39c1.195-.69 1.605-2.219.915-3.415-.69-1.197-2.221-1.604-3.415-.915l-1.637.945-7.767-13.453c3.669-2.493 6.841-5.664 9.333-9.333l12.848 7.418c.394.228.823.335 1.248.335.863 0 1.704-.448 2.167-1.25.69-1.196.28-2.725-.915-3.415l-12.842-7.415c1.902-3.902 3.09-8.209 3.413-12.753h15.531v1.89c0 1.381 1.119 2.5 2.5 2.5s2.5-1.119 2.5-2.5v-8.779c0-1.38-1.119-2.499-2.5-2.499zm-52.863 36.822c-16.504 0-29.932-13.427-29.932-29.932s13.428-29.932 29.932-29.932 29.932 13.427 29.932 29.932-13.428 29.932-29.932 29.932z" fill="#846f75"/><g fill="#65c1d6"><path d="m127 80.835c-7.347 0-13.323-5.977-13.323-13.324s5.976-13.323 13.323-13.323 13.323 5.977 13.323 13.323-5.976 13.324-13.323 13.324zm0-21.647c-4.59 0-8.323 3.734-8.323 8.323 0 4.59 3.733 8.324 8.323 8.324s8.323-3.734 8.323-8.324c0-4.589-3.733-8.323-8.323-8.323z"/><path d="m127 201.812c-7.347 0-13.323-5.977-13.323-13.323s5.977-13.324 13.323-13.324 13.323 5.977 13.323 13.324-5.976 13.323-13.323 13.323zm0-21.647c-4.59 0-8.323 3.734-8.323 8.324 0 4.589 3.733 8.323 8.323 8.323s8.323-3.734 8.323-8.323c0-4.591-3.733-8.324-8.323-8.324z"/><path d="m74.615 171.568c-7.347 0-13.323-5.977-13.323-13.324s5.977-13.324 13.323-13.324 13.324 5.977 13.324 13.324-5.977 13.324-13.324 13.324zm0-21.648c-4.59 0-8.323 3.734-8.323 8.324s3.733 8.324 8.323 8.324 8.324-3.734 8.324-8.324-3.734-8.324-8.324-8.324z"/><path d="m179.385 111.08c-7.347 0-13.324-5.977-13.324-13.324s5.978-13.324 13.324-13.324 13.323 5.977 13.323 13.324-5.977 13.324-13.323 13.324zm0-21.648c-4.59 0-8.324 3.734-8.324 8.324s3.734 8.324 8.324 8.324 8.323-3.734 8.323-8.324-3.733-8.324-8.323-8.324z"/><path d="m179.385 171.568c-7.347 0-13.324-5.977-13.324-13.324s5.978-13.324 13.324-13.324 13.323 5.977 13.323 13.324-5.977 13.324-13.323 13.324zm0-21.648c-4.59 0-8.324 3.734-8.324 8.324s3.734 8.324 8.324 8.324 8.323-3.734 8.323-8.324-3.733-8.324-8.323-8.324z"/><path d="m74.615 111.08c-7.347 0-13.323-5.977-13.323-13.324s5.977-13.324 13.323-13.324 13.324 5.977 13.324 13.324-5.977 13.324-13.324 13.324zm0-21.648c-4.59 0-8.323 3.734-8.323 8.324s3.733 8.324 8.323 8.324 8.324-3.734 8.324-8.324-3.734-8.324-8.324-8.324z"/><path d="m127 141.324c-7.347 0-13.323-5.977-13.323-13.324s5.977-13.324 13.323-13.324 13.323 5.977 13.323 13.324-5.976 13.324-13.323 13.324zm0-21.648c-4.59 0-8.323 3.734-8.323 8.324s3.733 8.324 8.323 8.324 8.323-3.734 8.323-8.324-3.733-8.324-8.323-8.324z"/><path d="m127 233.759c-58.315 0-105.759-47.443-105.759-105.759 0-26.644 9.94-52.097 27.989-71.672 17.943-19.46 42.293-31.425 68.563-33.691 1.374-.116 2.587.9 2.706 2.276.118 1.375-.9 2.587-2.276 2.706-51.578 4.448-91.982 48.541-91.982 100.381 0 55.559 45.2 100.759 100.759 100.759s100.759-45.2 100.759-100.759c0-51.91-38.888-95.003-90.457-100.239-1.373-.14-2.374-1.366-2.234-2.74s1.357-2.373 2.74-2.235c25.916 2.631 49.879 14.742 67.476 34.102 17.718 19.494 27.476 44.749 27.476 71.112-.001 58.316-47.445 105.759-105.76 105.759z"/></g><path d="m127 219.743c-50.587 0-91.743-41.156-91.743-91.743s41.156-91.743 91.743-91.743 91.743 41.156 91.743 91.743-41.156 91.743-91.743 91.743zm0-178.486c-47.83 0-86.743 38.913-86.743 86.743s38.913 86.743 86.743 86.743 86.743-38.913 86.743-86.743-38.913-86.743-86.743-86.743z" fill="#ebe7f2"/></g></svg>